<svg version="1.0" xmlns="http://www.w3.org/2000/svg" width="700.000000pt" height="350.000000pt" viewBox="0 0 700.000000 350.000000" preserveAspectRatio="xMidYMid meet" style="background-color:#e8e8e8">
<g transform="translate(0.000000,350.000000) scale(0.100000,-0.100000)" fill="#000000" stroke="none">
<path d="M0 1750 l0 -1750 3500 0 3500 0 0 1750 0 1750 -3500 0 -3500 0 0
-1750z m661 183 c-1 -46 0 -83 3 -83 3 0 20 9 38 20 18 11 49 20 69 20 75 0
98 -49 99 -202 0 -86 0 -88 -24 -88 -24 0 -24 2 -28 105 -2 82 -7 108 -20 121
-22 22 -66 22 -101 0 -27 -18 -27 -20 -27 -122 l0 -104 -30 0 -30 0 0 203 c0
112 3 207 7 211 4 4 16 6 28 4 19 -3 20 -9 16 -85z m483 65 c15 -25 -4 -53
-35 -53 -19 0 -25 6 -27 29 -5 45 38 61 62 24z m1050 0 c13 -21 -2 -51 -26
-56 -16 -3 -48 23 -48 38 0 15 32 41 48 38 8 -2 20 -11 26 -20z m2414 -163 c1
-99 7 -184 12 -189 5 -5 30 -8 55 -8 39 2 45 -1 45 -17 0 -16 -9 -21 -42 -26
-24 -4 -55 -2 -70 4 -49 18 -58 54 -58 221 l0 150 -44 0 c-47 0 -62 11 -52 36
4 12 21 14 78 12 l73 -3 3 -180z m386 163 c13 -21 -2 -51 -26 -56 -16 -3 -48
23 -48 38 0 15 32 41 48 38 8 -2 20 -11 26 -20z m926 -119 l0 -141 81 76 c74
70 110 89 123 68 3 -5 -17 -28 -45 -53 -27 -24 -49 -50 -49 -57 0 -7 25 -46
55 -87 30 -40 55 -76 55 -79 0 -4 -11 -6 -25 -6 -19 0 -36 15 -72 65 -27 35
-52 64 -57 65 -6 0 -23 -12 -38 -27 -21 -20 -28 -36 -28 -65 0 -34 -3 -38 -25
-38 l-25 0 0 203 c0 112 3 207 7 210 3 4 15 7 25 7 17 0 18 -11 18 -141z
m-3404 37 c-7 -96 -12 -116 -31 -116 -20 0 -22 6 -29 108 l-8 92 38 0 37 0 -7
-84z m3852 -28 c7 -7 12 -24 12 -38 0 -31 -17 -50 -45 -50 -28 0 -45 19 -45
50 0 31 17 50 45 50 12 0 26 -5 33 -12z m-5220 -145 l3 -143 -31 0 -30 0 0
120 0 119 -62 3 c-57 3 -63 5 -66 26 -3 22 -2 23 90 20 l93 -3 3 -142z m1047
2 l0 -140 -25 0 -25 0 -3 118 -3 117 -64 0 c-63 0 -65 1 -65 25 l0 26 93 -3
92 -3 0 -140z m543 129 c8 -14 10 -14 21 0 17 21 60 20 83 -1 17 -15 19 -15
36 0 25 23 65 21 88 -4 16 -18 20 -40 23 -145 l3 -124 -26 0 -26 0 0 109 c0
85 -3 113 -15 125 -19 19 -42 11 -52 -17 -4 -12 -8 -65 -8 -117 0 -91 -1 -95
-22 -98 -23 -3 -23 -2 -23 107 0 86 -3 113 -16 125 -8 9 -17 16 -19 16 -2 0
-11 -7 -19 -16 -13 -12 -16 -39 -16 -125 l0 -109 -30 0 -30 0 0 138 c0 76 3
142 7 145 11 12 32 8 41 -9z m720 0 c8 -15 12 -15 40 0 81 42 163 -4 177 -98
18 -120 -83 -219 -176 -172 -18 9 -34 16 -36 16 -1 0 -3 -31 -3 -70 0 -68 -1
-70 -25 -70 l-25 0 0 198 c0 109 3 202 7 205 11 12 32 7 41 -9z m508 -2 c37
-29 44 -57 44 -166 0 -97 -2 -106 -19 -106 -10 0 -21 7 -24 15 -5 12 -13 11
-53 -6 -53 -24 -103 -20 -135 12 -27 27 -25 80 4 107 21 20 120 52 160 52 13
0 17 5 13 16 -3 9 -6 19 -6 24 0 4 -14 13 -31 20 -26 11 -38 11 -81 -5 -34
-12 -53 -14 -60 -7 -42 42 138 85 188 44z m194 -97 c3 -60 9 -116 13 -122 15
-24 78 -15 109 14 27 26 28 30 28 126 0 96 0 98 23 95 21 -3 22 -6 25 -145 l3
-143 -26 0 c-19 0 -25 5 -25 21 l0 20 -26 -20 c-53 -42 -133 -36 -164 12 -15
23 -28 213 -16 243 3 9 15 14 28 12 22 -3 23 -8 28 -113z m830 -31 c0 -145 0
-145 -22 -142 -22 3 -23 7 -26 121 l-3 117 -59 0 c-59 0 -76 9 -66 35 4 12 25
15 91 15 l85 0 0 -146z m218 119 l3 -22 36 25 c41 28 98 32 130 9 31 -21 43
-74 43 -182 0 -93 0 -93 -25 -93 -25 0 -25 1 -26 88 -1 109 -8 134 -41 150
-30 14 -66 4 -98 -28 -17 -17 -20 -33 -20 -115 0 -95 0 -95 -25 -95 l-25 0 0
138 c0 76 3 142 7 146 13 13 38 1 41 -21z m509 7 c37 -22 50 -43 53 -85 5 -68
11 -65 -110 -65 -65 0 -110 -4 -110 -10 0 -5 13 -24 29 -42 25 -28 34 -32 80
-32 28 0 56 5 62 11 14 14 39 6 39 -13 0 -22 -42 -37 -107 -38 -71 -1 -107 19
-135 75 -67 130 77 274 199 199z m-4245 -197 c13 -11 18 -30 18 -66 0 -44 -4
-54 -39 -88 -40 -40 -71 -51 -71 -24 0 8 9 19 20 25 11 6 27 24 35 40 15 29
15 31 -10 42 -34 15 -44 56 -20 75 25 17 45 17 67 -4z m4902 1 c10 -10 16 -33
16 -66 0 -45 -4 -54 -39 -89 -37 -38 -71 -51 -71 -28 0 6 14 24 30 39 28 26
41 70 21 70 -14 0 -41 30 -41 45 0 20 28 45 50 45 10 0 26 -7 34 -16z"></path>
<path d="M3505 1833 c-41 -22 -45 -29 -45 -100 0 -56 3 -64 26 -79 37 -25 85
-20 112 11 33 39 32 126 -3 160 -28 29 -48 31 -90 8z"></path>
<path d="M3907 1740 c-81 -14 -114 -48 -87 -90 13 -20 79 -18 113 4 22 15 27
26 27 57 0 22 -1 38 -2 38 -2 -1 -25 -5 -51 -9z"></path>
<path d="M5605 1838 c-24 -14 -44 -39 -45 -55 0 -10 23 -13 85 -13 47 0 85 2
85 5 0 18 -26 55 -47 64 -30 14 -52 14 -78 -1z"></path>
</g>
</svg>